#define mini_mask_width 8
#define mini_mask_height 8
#define mini_mask_x_hot 3
#define mini_mask_y_hot 3
static char mini_mask_bits[] = {
   0x3c, 0x42, 0x7e, 0x7e, 0x66, 0x7e, 0x7e, 0x00};
